<mxfile host="app.diagrams.net" agent="Mozilla/5.0 (Windows NT 10.0; Win64; x64) AppleWebKit/537.36 (KHTML, like Gecko) Chrome/131.0.0.0 Safari/537.36 Edg/131.0.0.0" version="24.8.6">
  <diagram name="Page-1" id="cR15HA9c3D8K2swALWsx">
    <mxGraphModel dx="1806" dy="768" grid="1" gridSize="10" guides="1" tooltips="1" connect="1" arrows="1" fold="1" page="1" pageScale="1" pageWidth="850" pageHeight="1100" math="0" shadow="0">
      <root>
        <mxCell id="0" />
        <mxCell id="1" parent="0" />
        <mxCell id="B30W09u-ux6TkuVUiPrp-1" value=":WithTransaction&lt;div&gt;LoggerLevel&lt;/div&gt;" style="shape=umlLifeline;perimeter=lifelinePerimeter;whiteSpace=wrap;html=1;container=1;collapsible=0;recursiveResize=0;outlineConnect=0;rounded=1;shadow=0;comic=0;labelBackgroundColor=none;strokeWidth=1;fontFamily=Verdana;fontSize=12;align=center;" vertex="1" parent="1">
          <mxGeometry x="230" y="80" width="110" height="720" as="geometry" />
        </mxCell>
        <mxCell id="B30W09u-ux6TkuVUiPrp-2" value="" style="html=1;points=[];perimeter=orthogonalPerimeter;rounded=0;shadow=0;comic=0;labelBackgroundColor=none;strokeWidth=1;fontFamily=Verdana;fontSize=12;align=center;" vertex="1" parent="B30W09u-ux6TkuVUiPrp-1">
          <mxGeometry x="50" y="100" width="10" height="40" as="geometry" />
        </mxCell>
        <mxCell id="B30W09u-ux6TkuVUiPrp-3" value=":WithTransaction&lt;div&gt;LogOutputWriter&lt;/div&gt;" style="shape=umlLifeline;perimeter=lifelinePerimeter;whiteSpace=wrap;html=1;container=1;collapsible=0;recursiveResize=0;outlineConnect=0;rounded=1;shadow=0;comic=0;labelBackgroundColor=none;strokeWidth=1;fontFamily=Verdana;fontSize=12;align=center;" vertex="1" parent="1">
          <mxGeometry x="370" y="80" width="140" height="720" as="geometry" />
        </mxCell>
        <mxCell id="B30W09u-ux6TkuVUiPrp-4" value="" style="html=1;points=[];perimeter=orthogonalPerimeter;rounded=0;shadow=0;comic=0;labelBackgroundColor=none;strokeWidth=1;fontFamily=Verdana;fontSize=12;align=center;" vertex="1" parent="B30W09u-ux6TkuVUiPrp-3">
          <mxGeometry x="65" y="180" width="10" height="50" as="geometry" />
        </mxCell>
        <mxCell id="B30W09u-ux6TkuVUiPrp-5" value="" style="endArrow=none;dashed=1;html=1;dashPattern=1 3;strokeWidth=2;rounded=0;startArrow=classic;startFill=1;exitX=1.344;exitY=0.968;exitDx=0;exitDy=0;exitPerimeter=0;" edge="1" parent="B30W09u-ux6TkuVUiPrp-3">
          <mxGeometry width="50" height="50" relative="1" as="geometry">
            <mxPoint x="-226.55999999999995" y="409.76" as="sourcePoint" />
            <mxPoint x="220" y="410" as="targetPoint" />
          </mxGeometry>
        </mxCell>
        <mxCell id="B30W09u-ux6TkuVUiPrp-6" value="Return Log Configured&amp;nbsp;&lt;div&gt;Instance With YAML Config&lt;/div&gt;" style="edgeLabel;html=1;align=center;verticalAlign=middle;resizable=0;points=[];" vertex="1" connectable="0" parent="B30W09u-ux6TkuVUiPrp-5">
          <mxGeometry x="-0.2296" y="2" relative="1" as="geometry">
            <mxPoint x="24" y="-18" as="offset" />
          </mxGeometry>
        </mxCell>
        <mxCell id="B30W09u-ux6TkuVUiPrp-7" value=":Config" style="shape=umlLifeline;perimeter=lifelinePerimeter;whiteSpace=wrap;html=1;container=1;collapsible=0;recursiveResize=0;outlineConnect=0;rounded=1;shadow=0;comic=0;labelBackgroundColor=none;strokeWidth=1;fontFamily=Verdana;fontSize=12;align=center;" vertex="1" parent="1">
          <mxGeometry x="540" y="80" width="100" height="720" as="geometry" />
        </mxCell>
        <mxCell id="B30W09u-ux6TkuVUiPrp-8" value=":Info/Warning/Error/Debug" style="shape=umlLifeline;perimeter=lifelinePerimeter;whiteSpace=wrap;html=1;container=1;collapsible=0;recursiveResize=0;outlineConnect=0;rounded=1;shadow=0;comic=0;labelBackgroundColor=none;strokeWidth=1;fontFamily=Verdana;fontSize=12;align=center;" vertex="1" parent="1">
          <mxGeometry x="810" y="80" width="180" height="720" as="geometry" />
        </mxCell>
        <mxCell id="B30W09u-ux6TkuVUiPrp-52" value="" style="endArrow=classic;html=1;rounded=0;entryX=0.897;entryY=0.132;entryDx=0;entryDy=0;entryPerimeter=0;" edge="1" parent="B30W09u-ux6TkuVUiPrp-8">
          <mxGeometry width="50" height="50" relative="1" as="geometry">
            <mxPoint x="91" y="600" as="sourcePoint" />
            <mxPoint x="-85" y="600" as="targetPoint" />
          </mxGeometry>
        </mxCell>
        <mxCell id="B30W09u-ux6TkuVUiPrp-53" value="Group Log by Transaction Id" style="edgeLabel;html=1;align=center;verticalAlign=middle;resizable=0;points=[];" vertex="1" connectable="0" parent="B30W09u-ux6TkuVUiPrp-52">
          <mxGeometry x="0.0493" y="-1" relative="1" as="geometry">
            <mxPoint y="-7" as="offset" />
          </mxGeometry>
        </mxCell>
        <mxCell id="B30W09u-ux6TkuVUiPrp-9" value=":NewTransactionLog" style="shape=umlLifeline;perimeter=lifelinePerimeter;whiteSpace=wrap;html=1;container=1;collapsible=0;recursiveResize=0;outlineConnect=0;rounded=1;shadow=0;comic=0;labelBackgroundColor=none;strokeWidth=1;fontFamily=Verdana;fontSize=12;align=center;" vertex="1" parent="1">
          <mxGeometry x="70" y="80" width="130" height="720" as="geometry" />
        </mxCell>
        <mxCell id="B30W09u-ux6TkuVUiPrp-54" value="" style="html=1;points=[];perimeter=orthogonalPerimeter;rounded=0;shadow=0;comic=0;labelBackgroundColor=none;strokeWidth=1;fontFamily=Verdana;fontSize=12;align=center;" vertex="1" parent="B30W09u-ux6TkuVUiPrp-9">
          <mxGeometry x="60" y="360" width="10" height="60" as="geometry" />
        </mxCell>
        <mxCell id="B30W09u-ux6TkuVUiPrp-55" value="" style="html=1;points=[];perimeter=orthogonalPerimeter;rounded=0;shadow=0;comic=0;labelBackgroundColor=none;strokeWidth=1;fontFamily=Verdana;fontSize=12;align=center;" vertex="1" parent="B30W09u-ux6TkuVUiPrp-9">
          <mxGeometry x="60" y="90" width="10" height="210" as="geometry" />
        </mxCell>
        <mxCell id="B30W09u-ux6TkuVUiPrp-20" value="" style="endArrow=classic;html=1;rounded=0;entryX=0.365;entryY=0.336;entryDx=0;entryDy=0;entryPerimeter=0;" edge="1" parent="B30W09u-ux6TkuVUiPrp-9">
          <mxGeometry width="50" height="50" relative="1" as="geometry">
            <mxPoint x="-84.26111111111109" y="100" as="sourcePoint" />
            <mxPoint x="59.99999999999963" y="100" as="targetPoint" />
          </mxGeometry>
        </mxCell>
        <mxCell id="B30W09u-ux6TkuVUiPrp-21" value="Create Log Instance&lt;div&gt;with instance id&lt;/div&gt;" style="edgeLabel;html=1;align=center;verticalAlign=middle;resizable=0;points=[];" vertex="1" connectable="0" parent="B30W09u-ux6TkuVUiPrp-20">
          <mxGeometry x="-0.167" y="-3" relative="1" as="geometry">
            <mxPoint x="3" y="-21" as="offset" />
          </mxGeometry>
        </mxCell>
        <mxCell id="B30W09u-ux6TkuVUiPrp-11" value="" style="html=1;points=[];perimeter=orthogonalPerimeter;rounded=0;shadow=0;comic=0;labelBackgroundColor=none;strokeWidth=1;fontFamily=Verdana;fontSize=12;align=center;" vertex="1" parent="1">
          <mxGeometry x="585" y="170" width="10" height="230" as="geometry" />
        </mxCell>
        <mxCell id="B30W09u-ux6TkuVUiPrp-12" value="&lt;span style=&quot;font-family: Helvetica; font-size: 11px; background-color: rgb(255, 255, 255);&quot;&gt;Change Log Config&lt;/span&gt;" style="html=1;verticalAlign=bottom;endArrow=block;labelBackgroundColor=none;fontFamily=Verdana;fontSize=12;edgeStyle=elbowEdgeStyle;elbow=vertical;" edge="1" parent="1">
          <mxGeometry relative="1" as="geometry">
            <mxPoint x="444" y="300" as="sourcePoint" />
            <Array as="points">
              <mxPoint x="460" y="300" />
            </Array>
            <mxPoint x="585" y="300" as="targetPoint" />
          </mxGeometry>
        </mxCell>
        <mxCell id="B30W09u-ux6TkuVUiPrp-13" value="" style="html=1;points=[];perimeter=orthogonalPerimeter;rounded=0;shadow=0;comic=0;labelBackgroundColor=none;strokeWidth=1;fontFamily=Verdana;fontSize=12;align=center;" vertex="1" parent="1">
          <mxGeometry x="585" y="440" width="10" height="60" as="geometry" />
        </mxCell>
        <mxCell id="B30W09u-ux6TkuVUiPrp-14" value="Set Config from YAML" style="html=1;verticalAlign=bottom;endArrow=block;entryX=0;entryY=0;labelBackgroundColor=none;fontFamily=Verdana;fontSize=12;" edge="1" parent="1" target="B30W09u-ux6TkuVUiPrp-13">
          <mxGeometry relative="1" as="geometry">
            <mxPoint x="140" y="440" as="sourcePoint" />
          </mxGeometry>
        </mxCell>
        <mxCell id="B30W09u-ux6TkuVUiPrp-15" value="Choose Transaction&lt;div&gt;Log Level&lt;/div&gt;" style="html=1;verticalAlign=bottom;endArrow=block;entryX=0;entryY=0;labelBackgroundColor=none;fontFamily=Verdana;fontSize=12;edgeStyle=elbowEdgeStyle;elbow=vertical;" edge="1" parent="1" target="B30W09u-ux6TkuVUiPrp-2">
          <mxGeometry relative="1" as="geometry">
            <mxPoint x="135" y="180" as="sourcePoint" />
            <mxPoint as="offset" />
          </mxGeometry>
        </mxCell>
        <mxCell id="B30W09u-ux6TkuVUiPrp-16" value="Choose Output Writer" style="html=1;verticalAlign=bottom;endArrow=block;labelBackgroundColor=none;fontFamily=Verdana;fontSize=12;edgeStyle=elbowEdgeStyle;elbow=vertical;exitX=0.817;exitY=0.261;exitDx=0;exitDy=0;exitPerimeter=0;" edge="1" parent="1">
          <mxGeometry relative="1" as="geometry">
            <mxPoint x="138.17000000000007" y="263.52" as="sourcePoint" />
            <mxPoint x="435" y="270" as="targetPoint" />
            <Array as="points">
              <mxPoint x="300" y="270" />
            </Array>
          </mxGeometry>
        </mxCell>
        <mxCell id="B30W09u-ux6TkuVUiPrp-17" value=":Output" style="shape=umlLifeline;perimeter=lifelinePerimeter;whiteSpace=wrap;html=1;container=1;collapsible=0;recursiveResize=0;outlineConnect=0;rounded=1;shadow=0;comic=0;labelBackgroundColor=none;strokeWidth=1;fontFamily=Verdana;fontSize=12;align=center;" vertex="1" parent="1">
          <mxGeometry x="1040" y="80" width="180" height="720" as="geometry" />
        </mxCell>
        <mxCell id="B30W09u-ux6TkuVUiPrp-34" value="" style="html=1;points=[];perimeter=orthogonalPerimeter;rounded=0;shadow=0;comic=0;labelBackgroundColor=none;strokeColor=#000000;strokeWidth=1;fillColor=#FFFFFF;fontFamily=Verdana;fontSize=12;fontColor=#000000;align=center;" vertex="1" parent="B30W09u-ux6TkuVUiPrp-17">
          <mxGeometry x="85" y="590" width="10" height="90" as="geometry" />
        </mxCell>
        <mxCell id="B30W09u-ux6TkuVUiPrp-18" value="User" style="shape=umlLifeline;perimeter=lifelinePerimeter;whiteSpace=wrap;html=1;container=1;collapsible=0;recursiveResize=0;outlineConnect=0;rounded=1;shadow=0;comic=0;labelBackgroundColor=none;strokeWidth=1;fontFamily=Verdana;fontSize=12;align=center;" vertex="1" parent="1">
          <mxGeometry x="-60" y="80" width="100" height="720" as="geometry" />
        </mxCell>
        <mxCell id="B30W09u-ux6TkuVUiPrp-19" value="" style="html=1;points=[];perimeter=orthogonalPerimeter;rounded=0;shadow=0;comic=0;labelBackgroundColor=none;strokeWidth=1;fontFamily=Verdana;fontSize=12;align=center;" vertex="1" parent="B30W09u-ux6TkuVUiPrp-18">
          <mxGeometry x="45" y="90" width="10" height="610" as="geometry" />
        </mxCell>
        <mxCell id="B30W09u-ux6TkuVUiPrp-22" value="" style="endArrow=classic;html=1;rounded=0;exitX=1.174;exitY=0.16;exitDx=0;exitDy=0;exitPerimeter=0;entryX=0.5;entryY=0.07;entryDx=0;entryDy=0;entryPerimeter=0;" edge="1" parent="1" source="B30W09u-ux6TkuVUiPrp-2" target="B30W09u-ux6TkuVUiPrp-11">
          <mxGeometry width="50" height="50" relative="1" as="geometry">
            <mxPoint x="430" y="380" as="sourcePoint" />
            <mxPoint x="580" y="186" as="targetPoint" />
          </mxGeometry>
        </mxCell>
        <mxCell id="B30W09u-ux6TkuVUiPrp-23" value="Change Transaction&lt;div&gt;Log Config&lt;/div&gt;" style="edgeLabel;html=1;align=center;verticalAlign=middle;resizable=0;points=[];" vertex="1" connectable="0" parent="B30W09u-ux6TkuVUiPrp-22">
          <mxGeometry x="-0.5796" y="-3" relative="1" as="geometry">
            <mxPoint y="-19" as="offset" />
          </mxGeometry>
        </mxCell>
        <mxCell id="B30W09u-ux6TkuVUiPrp-24" value="" style="endArrow=none;dashed=1;html=1;dashPattern=1 3;strokeWidth=2;rounded=0;startArrow=blockThin;startFill=1;" edge="1" parent="1" target="B30W09u-ux6TkuVUiPrp-7">
          <mxGeometry width="50" height="50" relative="1" as="geometry">
            <mxPoint x="143" y="379" as="sourcePoint" />
            <mxPoint x="480" y="330" as="targetPoint" />
          </mxGeometry>
        </mxCell>
        <mxCell id="B30W09u-ux6TkuVUiPrp-25" value="Return Transaction&amp;nbsp;&lt;div&gt;Log Configured Instance With Drivers&lt;/div&gt;" style="edgeLabel;html=1;align=center;verticalAlign=middle;resizable=0;points=[];" vertex="1" connectable="0" parent="B30W09u-ux6TkuVUiPrp-24">
          <mxGeometry x="-0.2296" y="2" relative="1" as="geometry">
            <mxPoint x="35" y="-17" as="offset" />
          </mxGeometry>
        </mxCell>
        <mxCell id="B30W09u-ux6TkuVUiPrp-26" value="" style="endArrow=none;dashed=1;html=1;dashPattern=1 3;strokeWidth=2;rounded=0;entryX=0.093;entryY=0.96;entryDx=0;entryDy=0;entryPerimeter=0;startArrow=classic;startFill=1;" edge="1" parent="1" source="B30W09u-ux6TkuVUiPrp-18">
          <mxGeometry width="50" height="50" relative="1" as="geometry">
            <mxPoint x="17" y="488" as="sourcePoint" />
            <mxPoint x="130.92999999999984" y="487.20000000000005" as="targetPoint" />
          </mxGeometry>
        </mxCell>
        <mxCell id="B30W09u-ux6TkuVUiPrp-27" value="Return Transaction&lt;div&gt;Log Instance&lt;/div&gt;" style="edgeLabel;html=1;align=center;verticalAlign=middle;resizable=0;points=[];" vertex="1" connectable="0" parent="B30W09u-ux6TkuVUiPrp-26">
          <mxGeometry x="-0.2985" relative="1" as="geometry">
            <mxPoint x="18" y="-17" as="offset" />
          </mxGeometry>
        </mxCell>
        <mxCell id="B30W09u-ux6TkuVUiPrp-28" value="" style="html=1;points=[];perimeter=orthogonalPerimeter;rounded=0;shadow=0;comic=0;labelBackgroundColor=none;strokeWidth=1;fontFamily=Verdana;fontSize=12;align=center;" vertex="1" parent="1">
          <mxGeometry x="895" y="540" width="10" height="150" as="geometry" />
        </mxCell>
        <mxCell id="B30W09u-ux6TkuVUiPrp-29" value="" style="endArrow=classic;html=1;rounded=0;" edge="1" parent="1" source="B30W09u-ux6TkuVUiPrp-18">
          <mxGeometry width="50" height="50" relative="1" as="geometry">
            <mxPoint x="430" y="410" as="sourcePoint" />
            <mxPoint x="896" y="587" as="targetPoint" />
          </mxGeometry>
        </mxCell>
        <mxCell id="B30W09u-ux6TkuVUiPrp-30" value="Log Messages with attributes (meta data)" style="edgeLabel;html=1;align=center;verticalAlign=middle;resizable=0;points=[];" vertex="1" connectable="0" parent="B30W09u-ux6TkuVUiPrp-29">
          <mxGeometry x="-0.0851" y="-2" relative="1" as="geometry">
            <mxPoint y="-12" as="offset" />
          </mxGeometry>
        </mxCell>
        <mxCell id="B30W09u-ux6TkuVUiPrp-35" value="Active Transactions" style="shape=umlLifeline;perimeter=lifelinePerimeter;whiteSpace=wrap;html=1;container=1;collapsible=0;recursiveResize=0;outlineConnect=0;rounded=1;shadow=0;comic=0;labelBackgroundColor=none;strokeWidth=1;fontFamily=Verdana;fontSize=12;align=center;" vertex="1" parent="1">
          <mxGeometry x="670" y="80" width="100" height="720" as="geometry" />
        </mxCell>
        <mxCell id="B30W09u-ux6TkuVUiPrp-38" value="" style="endArrow=classic;html=1;rounded=0;" edge="1" parent="1" source="B30W09u-ux6TkuVUiPrp-37" target="B30W09u-ux6TkuVUiPrp-35">
          <mxGeometry width="50" height="50" relative="1" as="geometry">
            <mxPoint x="-8" y="552" as="sourcePoint" />
            <mxPoint x="390" y="360" as="targetPoint" />
          </mxGeometry>
        </mxCell>
        <mxCell id="B30W09u-ux6TkuVUiPrp-42" value="" style="html=1;points=[];perimeter=orthogonalPerimeter;rounded=0;shadow=0;comic=0;labelBackgroundColor=none;strokeWidth=1;fontFamily=Verdana;fontSize=12;align=center;" vertex="1" parent="1">
          <mxGeometry x="715" y="670" width="10" height="90" as="geometry" />
        </mxCell>
        <mxCell id="B30W09u-ux6TkuVUiPrp-46" value="" style="endArrow=classic;html=1;rounded=0;entryX=-0.009;entryY=0.211;entryDx=0;entryDy=0;entryPerimeter=0;" edge="1" parent="1">
          <mxGeometry width="50" height="50" relative="1" as="geometry">
            <mxPoint x="-10.521111111111086" y="730.0000000000001" as="sourcePoint" />
            <mxPoint x="714.9999999999999" y="730.0000000000001" as="targetPoint" />
          </mxGeometry>
        </mxCell>
        <mxCell id="B30W09u-ux6TkuVUiPrp-47" value="Stop Transaction Logging&lt;div&gt;&amp;lt;&amp;lt;remove&amp;gt;&amp;gt;&lt;/div&gt;" style="edgeLabel;html=1;align=center;verticalAlign=middle;resizable=0;points=[];" vertex="1" connectable="0" parent="B30W09u-ux6TkuVUiPrp-46">
          <mxGeometry x="-0.1197" y="1" relative="1" as="geometry">
            <mxPoint y="-21" as="offset" />
          </mxGeometry>
        </mxCell>
        <mxCell id="B30W09u-ux6TkuVUiPrp-56" value="" style="endArrow=classic;html=1;rounded=0;" edge="1" parent="1" target="B30W09u-ux6TkuVUiPrp-37">
          <mxGeometry width="50" height="50" relative="1" as="geometry">
            <mxPoint x="-8" y="552" as="sourcePoint" />
            <mxPoint x="720" y="552" as="targetPoint" />
          </mxGeometry>
        </mxCell>
        <mxCell id="B30W09u-ux6TkuVUiPrp-57" value="Start Transaction Logging&lt;div&gt;&amp;lt;&amp;lt;add&amp;gt;&amp;gt;&lt;/div&gt;" style="edgeLabel;html=1;align=center;verticalAlign=middle;resizable=0;points=[];" vertex="1" connectable="0" parent="B30W09u-ux6TkuVUiPrp-56">
          <mxGeometry x="-0.1197" y="1" relative="1" as="geometry">
            <mxPoint y="-21" as="offset" />
          </mxGeometry>
        </mxCell>
        <mxCell id="B30W09u-ux6TkuVUiPrp-37" value="" style="html=1;points=[];perimeter=orthogonalPerimeter;rounded=0;shadow=0;comic=0;labelBackgroundColor=none;strokeWidth=1;fontFamily=Verdana;fontSize=12;align=center;" vertex="1" parent="1">
          <mxGeometry x="715" y="535" width="10" height="30" as="geometry" />
        </mxCell>
        <mxCell id="B30W09u-ux6TkuVUiPrp-48" value="" style="endArrow=classic;html=1;rounded=0;exitX=0.897;exitY=0.368;exitDx=0;exitDy=0;exitPerimeter=0;" edge="1" parent="1">
          <mxGeometry width="50" height="50" relative="1" as="geometry">
            <mxPoint x="719.4700000000003" y="749.9999999999997" as="sourcePoint" />
            <mxPoint x="1125" y="749.9999999999997" as="targetPoint" />
          </mxGeometry>
        </mxCell>
        <mxCell id="B30W09u-ux6TkuVUiPrp-51" value="Write output with given drivers&lt;div&gt;for transaction instance&lt;/div&gt;" style="edgeLabel;html=1;align=center;verticalAlign=middle;resizable=0;points=[];" vertex="1" connectable="0" parent="B30W09u-ux6TkuVUiPrp-48">
          <mxGeometry x="0.0316" y="1" relative="1" as="geometry">
            <mxPoint y="-19" as="offset" />
          </mxGeometry>
        </mxCell>
      </root>
    </mxGraphModel>
  </diagram>
</mxfile>
